<?xml version="1.0" encoding="UTF-8"?>
<svg width="15px" height="18px" viewBox="0 0 15 18" version="1.1" xmlns="http://www.w3.org/2000/svg" xmlns:xlink="http://www.w3.org/1999/xlink">
  <!-- Generator: Sketch 61.2 (89653) - https://sketch.com -->
  <title>function icon/Menu菜单/object</title>
  <desc>Created with Sketch.</desc>
  <g id="block-service" stroke="none" stroke-width="1" fill="none" fill-rule="evenodd">
    <g id="volume_capacity" transform="translate(-1597.000000, -389.000000)">
      <g id="group_horizontal_32_none" transform="translate(312.000000, 128.000000)">
        <g id="编组-2复制-2" transform="translate(32.000000, 240.000000)">
          <g id="编组-8">
            <g id="function-icon/Menu菜单/object" transform="translate(1253.000000, 21.000000)">
              <g id="编组" transform="translate(0.500000, 0.750000)">
                <path d="M7.14470958,0 L8.28079169,0.587577805 C9.72497462,1.33450431 11.2548501,1.90253862 12.836546,2.27910418 L14.2894192,2.625 L14.2894192,10.125 C12.7865612,12.8069016 10.4782042,14.9481522 7.69113542,16.2456214 L7.14470958,16.5 L5.24345979,15.500436 C3.08600509,14.3661747 1.32176895,12.6114081 0.175775737,10.4668243 L0,10.125 L0,2.625 L1.43303673,2.28592784 C3.04347197,1.90488126 4.60038746,1.32542737 6.06808134,0.560853726 L7.14470958,0 Z M7.12748008,1.69003161 L6.19213574,2.19253705 C4.9855162,2.84078269 3.70554584,3.33207408 2.38157586,3.65514536 L2.38157586,3.65514536 L1.5,3.87026493 L1.5,9.98583955 C2.50119771,11.9169283 4.04196794,13.4970132 5.92597296,14.5185144 L5.92597296,14.5185144 L7.16448526,15.1900316 C9.48671451,14.0440494 11.4286985,12.2188769 12.75,9.94452669 L12.75,9.94452669 L12.75,3.8685267 L11.8574992,3.64939175 C10.5571564,3.33011972 9.29941613,2.84851044 8.11212538,2.21522697 L8.11212538,2.21522697 L7.12748008,1.69003161 Z" id="形状结合" fill="#9EA4B3"></path>
                <line x1="7" y1="5.75" x2="7" y2="9.75" id="直线" stroke="#9EA4B3" stroke-linecap="square"></line>
                <line x1="7" y1="11.5" x2="7" y2="11.75" id="直线备份" stroke="#9EA4B3" stroke-linecap="square"></line>
              </g>
            </g>
          </g>
        </g>
      </g>
    </g>
  </g>
</svg>
